<svg width="247" height="247" viewBox="0 0 247 247" fill="none" xmlns="http://www.w3.org/2000/svg">
<path d="M240 41.6563V7H207.693M39.3067 7H7V41.6563M7 209.651V240H39.3067M207.693 240H240V209.651" stroke="#31302C" stroke-width="14"/>
<rect x="32" y="24" width="182" height="199" rx="20" fill="white"/>
<path d="M120.315 151.687C139.447 151.687 154.956 136.132 154.956 116.945C154.956 97.7578 139.447 82.2035 120.315 82.2035C101.183 82.2035 85.6736 97.7578 85.6736 116.945C85.6736 136.132 101.183 151.687 120.315 151.687Z" fill="#FFC271"/>
<path d="M127.336 101.581C127.729 102.098 128.048 102.59 128.245 103.132C128.294 103.304 128.073 103.378 127.999 103.231C127.164 102.073 125.863 101.212 123.948 99.3157C123.138 98.5032 122.23 97.863 121.174 97.3952C111.697 92.9632 107.18 90.7227 104.038 87.4479C99.2993 82.4989 98.0226 77.5253 96.746 75.1616C96.5005 74.7184 95.8376 74.743 95.6658 75.2354C94.4628 78.4117 95.0029 83.3853 102.123 89.0484C102.319 89.2207 102.123 89.4916 101.902 89.3684C97.7526 87.1278 95.6658 85.4289 92.6215 82.7698C90.1909 80.6523 87.5394 78.5348 86.0909 77.3529C85.6981 77.0328 85.1335 77.4268 85.2808 77.9192C86.6065 81.9819 91.9831 86.4631 97.5316 89.2453C97.7526 89.3438 97.6053 89.6639 97.4089 89.6147C92.2041 88.1127 85.1089 86.1183 81.8682 85.2073C81.3526 85.0842 81.0089 85.7244 81.4263 86.0691C85.0353 89.073 91.664 90.5749 96.9179 91.2397C97.1634 91.2643 97.1634 91.609 96.9179 91.6337C95.052 91.7568 92.8179 91.7075 91.6149 91.6337C91.2712 91.609 91.0257 91.9784 91.1975 92.2985C92.1304 93.9974 95.1993 98.257 103.375 100.571C106.738 101.532 109.463 101.606 111.992 102.393C112.238 102.467 112.164 102.837 111.918 102.812C108.8 102.492 105.339 102.59 101.362 101.581C100.821 101.458 100.33 101.876 100.404 102.418C101.484 111.331 112.704 114.384 118.449 115.763C118.965 115.886 119.456 115.64 119.676 115.148L121.518 110.888C130.037 115.517 135.119 112.809 135.119 112.809L135.438 112.858C135.855 112.932 136.322 112.907 136.715 112.759C137.058 112.636 137.549 112.464 137.991 112.267C138.556 112.316 138.973 112.685 139.268 113.104C139.366 113.227 139.563 113.227 139.661 113.079C140.103 112.316 139.955 111.602 139.759 110.962C139.759 110.962 139.955 110.125 139.931 109.632C139.882 109.115 139.661 108.918 139.219 107.909C138.826 106.973 137.844 106.973 137.525 107.712C137.476 107.835 137.304 107.909 137.181 107.884C137.083 107.86 136.96 107.835 136.838 107.81C136.199 107.638 135.512 107.86 135.045 108.377C134.382 109.14 134.039 110.42 134.309 111.43C134.382 111.725 134.063 111.996 133.793 111.824C132.836 111.307 132.32 110.666 132.075 109.952C131.731 109.041 132.983 106.21 134.873 105.964C135.733 105.865 136.396 106.259 136.764 106.579C136.936 106.702 137.157 106.752 137.329 106.604C137.353 106.579 137.402 106.555 137.427 106.53C137.82 106.284 138.286 106.234 138.728 106.333C139.293 106.505 139.735 106.924 140.005 107.539C140.176 107.909 140.299 108.155 140.373 108.377C140.569 108.771 140.717 109.066 140.766 109.558C140.79 109.903 140.741 110.322 140.717 110.642C140.692 110.839 140.692 111.036 140.741 111.233C140.79 111.454 140.987 111.602 141.232 111.602C144.399 111.528 150.12 111.701 152.624 112.858C152.624 112.858 155.693 115.862 158.369 117.314C158.86 117.585 159.424 117.216 159.375 116.65C159.252 115.049 158.516 113.079 157.19 111.38C157.018 111.183 157.239 110.937 157.46 111.06C160.357 112.636 165.145 114.261 168.459 114.064C168.704 114.064 168.827 113.793 168.729 113.572C168.189 112.612 167.256 111.528 165.93 110.617C165.709 110.494 165.807 110.125 166.053 110.1C168.729 109.854 172.166 108.844 174.597 106.308C176.119 104.733 177.003 102.911 177.346 101.113C177.445 100.473 176.585 100.202 176.315 100.793C175.063 103.378 172.313 106.407 167.109 107.367C159.277 108.771 151.568 104.708 139.317 103.428C138.802 103.378 138.311 103.378 137.795 103.403L137.549 103.428C137.279 103.452 137.181 103.748 137.353 103.945C137.623 104.215 137.893 104.486 138.163 104.708C138.261 104.806 138.139 104.979 137.991 104.905C135.905 103.575 133.499 101.729 131.215 101.113C130.16 100.842 128.932 100.793 127.705 100.818C127.312 100.867 127.091 101.285 127.336 101.581Z" fill="#31302C"/>
<path d="M109.537 129.477C103.301 120.244 97.7281 107.416 90.2646 105.052C88.1287 104.388 85.9192 104.757 83.7341 105.668C88.6197 114.532 95.273 125.932 109.537 129.477Z" fill="#FF7D43"/>
<path d="M160.333 138.12C156.65 133.442 153.557 127.852 148.745 126.867C142.828 125.612 137.574 131.25 131.976 135.337C138.335 137.701 144.89 139.696 156.085 138.563L160.333 138.12Z" fill="#FF7D43"/>
<path d="M160.333 138.144C162.027 140.262 163.843 142.182 166.004 143.414C166.151 143.118 166.274 142.847 166.421 142.552C167.526 140.213 165.636 137.578 163.058 137.849C161.56 138.021 160.333 138.144 160.333 138.144Z" fill="#86B3BF"/>
<path d="M119.456 138.809C124.047 140.237 128.122 138.169 131.976 135.337C126.723 133.368 121.591 131.176 114.03 130.29C112.434 130.118 110.912 129.822 109.512 129.477C112.581 133.983 115.797 137.652 119.456 138.809Z" fill="#86B3BF"/>
<path d="M83.7095 105.668C82.1382 102.812 80.7143 99.2172 79.2658 96.041C77.6209 92.4215 72.2442 93.3079 71.8269 97.2474L70.0347 113.744C73.8646 112.538 78.7257 107.736 83.7095 105.668Z" fill="#86B3BF"/>
<path d="M166.028 143.414C163.868 142.207 162.051 140.262 160.357 138.12L156.11 138.563C144.89 139.72 138.36 137.701 132.001 135.338C128.122 138.169 124.071 140.237 119.48 138.809C115.797 137.652 112.606 134.008 109.537 129.478C95.273 125.932 88.6197 114.557 83.7095 105.668C78.7502 107.761 73.8646 112.562 70.0102 113.769L69.8383 115.271C69.5191 118.275 69.3964 121.278 69.5682 124.282C74.0856 126.769 78.6275 129.945 83.6359 133.516C104.48 148.412 133.793 157.448 154.269 155.355C155.3 155.257 156.625 155.109 158.148 154.961C161.266 151.49 163.942 147.624 166.028 143.414Z" fill="#2C7C89"/>
<path d="M158.123 154.986C156.601 155.134 155.275 155.281 154.244 155.38C133.769 157.448 104.48 148.412 83.6359 133.54C78.603 129.945 74.0857 126.794 69.5683 124.307C69.7647 128.197 70.403 132.063 71.5569 135.805C72.9809 140.385 75.0186 144.669 77.5719 148.609C85.2317 154.641 93.8 159.295 103.375 158.901C126.183 157.965 130.577 164.416 146.805 164.391C151.028 161.781 154.833 158.63 158.123 154.986Z" fill="#31302C"/>
<path d="M77.5473 148.535C86.6557 162.52 102.417 171.778 120.315 171.778C130.037 171.778 139.121 169.045 146.854 164.317C130.577 164.367 126.232 157.891 103.375 158.827C93.7999 159.245 85.2072 154.567 77.5473 148.535Z" fill="#FF7D43"/>
</svg>
