<svg width="109" height="98" viewBox="0 0 109 98" fill="none" xmlns="http://www.w3.org/2000/svg">
<path d="M51.3148 77.6866C70.4466 77.6866 85.956 62.1323 85.956 42.9451C85.956 23.7578 70.4466 8.20349 51.3148 8.20349C32.183 8.20349 16.6736 23.7578 16.6736 42.9451C16.6736 62.1323 32.183 77.6866 51.3148 77.6866Z" fill="#FFC271"/>
<path d="M58.3363 27.5809C58.7291 28.098 59.0483 28.5904 59.2447 29.1321C59.2938 29.3045 59.0729 29.3783 58.9992 29.2306C58.1645 28.0734 56.8633 27.2116 54.9483 25.3157C54.1381 24.5032 53.2298 23.863 52.1741 23.3952C42.6975 18.9632 38.1801 16.7227 35.0376 13.4479C30.2993 8.49892 29.0226 3.52529 27.746 1.16158C27.5005 0.718386 26.8376 0.743008 26.6658 1.23545C25.4628 4.41168 26.0029 9.38531 33.1226 15.0484C33.319 15.2207 33.1226 15.4916 32.9017 15.3684C28.7526 13.1278 26.6658 11.4289 23.6215 8.76976C21.1909 6.65227 18.5394 4.53479 17.0909 3.35293C16.6981 3.03285 16.1335 3.4268 16.2808 3.91924C17.6065 7.98186 22.9831 12.4631 28.5316 15.2453C28.7526 15.3438 28.6053 15.6639 28.4089 15.6147C23.2041 14.1127 16.1089 12.1183 12.8682 11.2073C12.3526 11.0842 12.0089 11.7244 12.4263 12.0691C16.0353 15.073 22.664 16.5749 27.9179 17.2397C28.1634 17.2643 28.1634 17.609 27.9179 17.6337C26.052 17.7568 23.8179 17.7075 22.6149 17.6337C22.2712 17.609 22.0257 17.9784 22.1975 18.2985C23.1304 19.9974 26.1993 24.257 34.3747 26.5714C37.7382 27.5317 40.4633 27.6056 42.9921 28.3935C43.2376 28.4673 43.1639 28.8366 42.9184 28.812C39.8005 28.4919 36.3388 28.5904 32.3616 27.5809C31.8214 27.4578 31.3304 27.8764 31.4041 28.4181C32.4843 37.3312 43.704 40.3843 49.4489 41.7632C49.9645 41.8863 50.4555 41.6401 50.6765 41.1476L52.5178 36.888C61.0369 41.517 66.1189 38.8085 66.1189 38.8085L66.4381 38.8578C66.8555 38.9316 67.3219 38.907 67.7148 38.7593C68.0585 38.6362 68.5495 38.4638 68.9914 38.2669C69.5561 38.3161 69.9734 38.6854 70.268 39.104C70.3662 39.2271 70.5626 39.2271 70.6609 39.0794C71.1028 38.3161 70.9555 37.6021 70.7591 36.9619C70.7591 36.9619 70.9555 36.1247 70.9309 35.6323C70.8818 35.1152 70.6609 34.9183 70.2189 33.9088C69.8261 32.9731 68.8441 32.9731 68.5249 33.7118C68.4758 33.8349 68.304 33.9088 68.1812 33.8841C68.083 33.8595 67.9603 33.8349 67.8375 33.8103C67.1992 33.6379 66.5118 33.8595 66.0453 34.3766C65.3824 35.1399 65.0387 36.4202 65.3088 37.4297C65.3824 37.7252 65.0633 37.996 64.7932 37.8237C63.8357 37.3066 63.3202 36.6664 63.0746 35.9524C62.7309 35.0414 63.983 32.2099 65.8734 31.9636C66.7327 31.8651 67.3956 32.2591 67.7639 32.5792C67.9357 32.7023 68.1567 32.7515 68.3285 32.6038C68.3531 32.5792 68.4022 32.5546 68.4267 32.5299C68.8195 32.2837 69.286 32.2345 69.7279 32.333C70.2926 32.5053 70.7345 32.9239 71.0046 33.5394C71.1764 33.9088 71.2992 34.155 71.3728 34.3766C71.5692 34.7705 71.7165 35.066 71.7656 35.5584C71.7902 35.9031 71.7411 36.3217 71.7165 36.6418C71.692 36.8388 71.692 37.0358 71.7411 37.2327C71.7902 37.4543 71.9866 37.6021 72.2321 37.6021C75.3992 37.5282 81.1195 37.7006 83.6237 38.8578C83.6237 38.8578 86.6926 41.8617 89.3686 43.3144C89.8596 43.5852 90.4243 43.2159 90.3752 42.6496C90.2524 41.0491 89.5159 39.0794 88.1901 37.3805C88.0183 37.1835 88.2393 36.9373 88.4602 37.0604C91.3572 38.6362 96.1446 40.2612 99.459 40.0643C99.7045 40.0643 99.8272 39.7934 99.729 39.5718C99.1889 38.6116 98.256 37.5282 96.9302 36.6172C96.7093 36.4941 96.8075 36.1247 97.053 36.1001C99.729 35.8539 103.166 34.8444 105.597 32.3083C107.119 30.7325 108.003 28.9105 108.346 27.1131C108.445 26.4729 107.585 26.2021 107.315 26.793C106.063 29.3783 103.313 32.4068 98.1087 33.3671C90.277 34.7705 82.568 30.7079 70.3171 29.4276C69.8016 29.3783 69.3106 29.3783 68.795 29.403L68.5495 29.4276C68.2794 29.4522 68.1812 29.7477 68.3531 29.9446C68.6231 30.2155 68.8932 30.4863 69.1632 30.7079C69.2615 30.8064 69.1387 30.9788 68.9914 30.9049C66.9046 29.5753 64.4986 27.7287 62.2154 27.1131C61.1597 26.8423 59.9321 26.793 58.7046 26.8176C58.3118 26.8669 58.0908 27.2855 58.3363 27.5809Z" fill="#31302C"/>
<path d="M40.537 55.4773C34.3011 46.2441 28.7281 33.4161 21.2646 31.0524C19.1287 30.3876 16.9192 30.7569 14.7341 31.6679C19.6197 40.5318 26.273 51.9318 40.537 55.4773Z" fill="#FF7D43"/>
<path d="M91.3326 64.1197C87.65 59.4415 84.5566 53.8524 79.7447 52.8675C73.8279 51.6118 68.574 57.2502 62.9764 61.3374C69.3351 63.7011 75.8902 65.6955 87.0854 64.5629L91.3326 64.1197Z" fill="#FF7D43"/>
<path d="M91.3326 64.1445C93.0266 66.2619 94.8434 68.1824 97.0039 69.4135C97.1512 69.1181 97.2739 68.8472 97.4212 68.5518C98.526 66.2127 96.6356 63.5781 94.0578 63.849C92.5602 64.0213 91.3326 64.1445 91.3326 64.1445Z" fill="#86B3BF"/>
<path d="M50.4555 64.8091C55.0465 66.2372 59.122 64.169 62.9765 61.3374C57.7226 59.3677 52.5915 57.1763 45.0298 56.2899C43.434 56.1176 41.9118 55.8221 40.5125 55.4774C43.5813 59.9832 46.7975 63.6519 50.4555 64.8091Z" fill="#86B3BF"/>
<path d="M14.7095 31.6681C13.1382 28.812 11.7143 25.2172 10.2658 22.041C8.62087 18.4215 3.24424 19.3079 2.82688 23.2474L1.03467 39.7441C4.8646 38.5377 9.72566 33.7364 14.7095 31.6681Z" fill="#86B3BF"/>
<path d="M97.0284 69.4135C94.868 68.2071 93.0512 66.2619 91.3572 64.1198L87.1099 64.563C75.8902 65.7202 69.3596 63.7012 63.001 61.3375C59.122 64.1691 55.0711 66.2373 50.4801 64.8092C46.7974 63.652 43.6058 60.0079 40.537 55.4775C26.273 51.932 19.6197 40.5566 14.7095 31.6681C9.75025 33.761 4.86463 38.5622 1.01015 39.7687L0.838297 41.2706C0.519137 44.2745 0.396382 47.2784 0.568238 50.2823C5.08559 52.7691 9.62749 55.9453 14.6359 59.5155C35.4795 74.4118 64.7932 83.448 85.2686 81.3552C86.2997 81.2567 87.6255 81.109 89.1476 80.9612C92.2656 77.4895 94.9416 73.6239 97.0284 69.4135Z" fill="#2C7C89"/>
<path d="M89.1231 80.9858C87.601 81.1336 86.2752 81.2813 85.2441 81.3798C64.7687 83.448 35.4796 74.4118 14.6359 59.5401C9.603 55.9453 5.08565 52.7937 0.568298 50.3069C0.764705 54.1972 1.40303 58.0628 2.55692 61.8053C3.98086 66.385 6.01858 70.6692 8.57187 74.6087C16.2317 80.6411 24.8 85.2947 34.3748 84.9007C57.1825 83.9651 61.5771 90.416 77.8052 90.3914C82.0279 87.7815 85.8333 84.6299 89.1231 80.9858Z" fill="#31302C"/>
<path d="M8.5473 74.5348C17.6557 88.5201 33.4173 97.7779 51.3148 97.7779C61.037 97.7779 70.1208 95.0449 77.8543 90.3174C61.5771 90.3667 57.2316 83.8911 34.3748 84.8268C24.7999 85.2453 16.2072 80.5672 8.5473 74.5348Z" fill="#FF7D43"/>
</svg>
