<svg width="125" height="58" viewBox="0 0 125 58" fill="none" xmlns="http://www.w3.org/2000/svg">
<g clip-path="url(#clip0_10_314)">
<path d="M124.891 37.4445C124.891 37.4445 124.889 37.4391 124.888 37.4378C124.752 36.9962 124.737 36.5316 124.851 36.0832C124.903 35.8792 124.929 35.6672 124.927 35.4552C125.067 32.3948 124.168 29.5586 122.512 27.8272C119.612 24.4089 113.394 24.236 109.882 27.0357C109.278 27.5165 108.38 27.11 108.38 26.3442V17.8546C108.38 16.4379 107.216 15.2885 105.78 15.2885H102.811C101.375 15.2885 100.211 16.4379 100.211 17.8546V18.642C98.4687 17.1456 95.6306 17.3589 94.0418 18.9904C92.3929 20.5584 92.3491 23.2636 93.7285 24.9707C94.0829 25.4097 94.1075 26.0228 93.7641 26.4699C93.7504 26.4888 93.7353 26.5077 93.7216 26.5266C93.3015 27.106 92.5229 27.241 91.9714 26.7832C90.7248 25.7487 89.0867 25.1598 87.4172 25.0882C86.4224 25.045 85.6369 24.2387 85.6369 23.2555V17.8546C85.6369 16.4379 84.4724 15.2885 83.0369 15.2885H80.0537C78.6182 15.2885 77.4536 16.4379 77.4536 17.8546C77.4536 18.1558 77.1348 18.3489 76.8611 18.2179C73.4154 16.581 69.3593 16.4838 65.8246 17.8641C65.3881 18.0342 64.9324 17.6601 65.0132 17.2036V17.1969C65.2978 15.5748 63.9389 14.0109 62.2763 14.042C61.2171 14.042 60.2442 14.6524 59.7844 15.6005C59.1617 16.9997 57.2733 18.045 54.9839 17.987C54.5022 17.987 54.0041 17.9518 53.4868 17.8884C52.0349 17.7114 50.7759 16.8268 50.1095 15.5424C45.5991 6.85425 34.7023 2.0692 25.0123 4.75547C23.1253 5.27814 21.141 4.32329 20.3514 2.55135C20.1845 2.17454 20.0093 1.79774 19.8068 1.41283C18.6778 -0.630578 15.5469 -0.413137 14.7422 1.78963L14.7381 1.80044C14.5575 2.27584 13.9567 2.44601 13.5544 2.12863C12.9646 1.66403 12.3447 1.27777 11.5387 1.30208C9.73236 1.27507 8.35434 3.10373 8.90308 4.80544C8.90856 4.82165 8.91403 4.83921 8.91951 4.85542C9.04951 5.25383 8.82782 5.67116 8.4255 5.80351C7.64138 6.06147 6.99685 6.66382 6.70811 7.4593C6.67527 7.54844 6.6479 7.63758 6.626 7.72672C6.27568 9.10429 5.26167 10.205 3.95755 10.8047C2.54258 11.4543 1.4492 12.7657 1.31509 14.4458C0.972984 18.4299 -0.249031 25.8297 0.0451829 29.6734C1.84742 56.4902 35.4754 67.7458 53.7085 47.9925C55.7666 45.7262 57.469 43.2628 58.7156 40.5995C58.7183 40.5927 58.7225 40.586 58.7252 40.5792C59.0618 39.8675 60.0047 39.7108 60.5548 40.278C64.6984 44.5499 71.6651 45.8599 77.0801 43.1682C77.4441 42.9873 77.8861 43.0696 78.1666 43.36L78.1762 43.3695C78.4334 43.6355 78.5046 44.0299 78.3472 44.3635C78.1064 44.8713 77.9367 45.4412 77.8464 46.0652C77.7465 46.7634 77.9558 47.4509 78.3664 47.9803C78.8727 48.6353 78.8891 49.5375 78.3664 50.1777C78.3527 50.1952 78.3376 50.2128 78.324 50.229C76.9391 51.8834 78.1488 54.4211 80.3274 54.4144H103.303C104.401 54.4144 105.342 53.7391 105.723 52.787C106.34 52.317 106.738 51.5809 106.738 50.7544V49.9575C106.738 49.4794 106.605 49.031 106.373 48.6475C106.046 48.1073 105.898 47.4792 105.897 46.8485L105.893 45.3926C105.891 44.7606 106.28 44.2041 106.861 43.9408C107.756 43.5356 108.379 42.6442 108.379 41.611C108.379 41.3936 108.653 41.2964 108.794 41.4625C110.567 43.5585 113.214 44.6539 116.15 44.585C119.723 44.585 122.657 42.8198 124.637 39.4812C125.003 38.868 125.094 38.1266 124.886 37.4459L124.891 37.4445ZM100.212 25.6298V25.8689C100.156 25.8337 100.1 25.8 100.042 25.7676C100.101 25.723 100.156 25.6757 100.212 25.6285V25.6298Z" fill="white"/>
<path d="M76.8255 21.1093V24.5803C76.8255 24.7018 76.6887 24.7558 76.5929 24.6883C70.8592 19.8938 62.6896 23.4188 62.6485 30.8334C62.6485 33.1428 63.4422 35.0877 65.0159 36.6678C67.137 38.9638 71.0234 39.6931 73.8287 38.4776C74.8139 38.0589 75.7034 37.4511 76.6066 36.7218C76.7024 36.6543 76.8255 36.7083 76.8255 36.8299V40.3819C76.8255 40.4764 76.7708 40.5709 76.6887 40.6115C69.0665 44.9333 59.159 39.6661 59.2685 30.8604C59.1864 22.1627 68.9707 16.4093 76.6887 20.8797C76.7708 20.9337 76.8255 21.0148 76.8255 21.1093Z" fill="#FF7D43"/>
<path d="M83.0383 17.7194C83.1204 17.7194 83.1751 17.7734 83.1751 17.8544V29.0506C85.2825 27.0248 88.9089 26.9843 90.7973 29.0371C91.6047 29.915 92.0015 31.3331 92.0015 33.2644V41.6244C92.0015 41.7054 91.9468 41.7594 91.8647 41.7594H88.8952C88.8131 41.7594 88.7583 41.7054 88.7583 41.6244V33.548C88.7583 32.4405 88.5531 31.6302 88.1562 31.1305C87.7594 30.6308 87.1162 30.3877 86.2267 30.3877C83.4077 30.4552 83.2435 32.265 83.1614 35.0336V41.5974C83.1614 41.6784 83.1067 41.7324 83.0246 41.7324H80.0551C79.973 41.7324 79.9182 41.6784 79.9182 41.5974V17.8544C79.9182 17.7734 79.973 17.7194 80.0551 17.7194H83.0383Z" fill="#FF7D43"/>
<path d="M95.2037 22.1222C95.19 20.3125 97.53 19.3536 98.8026 20.6636C99.6374 21.4199 99.6237 22.838 98.8026 23.6078C97.5163 24.9584 95.1626 23.9725 95.2037 22.1222ZM98.9395 28.0242V41.6109C98.9395 41.6919 98.8848 41.7459 98.8026 41.7459H95.8331C95.751 41.7459 95.6963 41.6919 95.6963 41.6109V28.0242C95.6963 27.9432 95.751 27.8891 95.8331 27.8891H98.8026C98.8711 27.8891 98.9395 27.9567 98.9395 28.0242Z" fill="#FF7D43"/>
<path d="M105.918 17.8544V41.6109C105.918 41.6919 105.864 41.7459 105.782 41.7459H102.812C102.73 41.7459 102.675 41.6919 102.675 41.6109V17.8544C102.675 17.7734 102.73 17.7194 102.812 17.7194H105.782C105.864 17.7194 105.918 17.7734 105.918 17.8544Z" fill="#FF7D43"/>
<path d="M122.34 35.5739H112.405C112.542 37.7078 113.897 39.3014 116.086 39.2879C116.893 39.2879 117.564 39.0988 118.084 38.7207C118.59 38.356 119.151 37.6942 119.781 36.7218C119.822 36.6678 119.904 36.6408 119.959 36.6813L122.463 38.0589C122.531 38.0994 122.559 38.1805 122.518 38.248C121.053 40.7195 118.919 42.2186 115.963 42.1511C111.666 42.1916 108.956 39.0583 109.011 34.8311C109.011 32.6431 109.627 30.8604 110.859 29.5098C113.103 26.8492 118.453 26.8357 120.684 29.4558C121.998 30.7929 122.586 33.1428 122.463 35.4388C122.477 35.5198 122.422 35.5739 122.34 35.5739ZM119.151 32.9538C118.399 29.4423 113.431 29.6044 112.638 32.9538H119.151Z" fill="#FF7D43"/>
<path d="M82.3951 50.8758H85.1731C85.2415 50.8758 85.3099 50.9298 85.3099 51.0108V51.8482C85.3099 51.9157 85.2552 51.9832 85.1731 51.9832H80.3288C80.2193 51.9832 80.1509 51.8617 80.233 51.7671C81.1499 50.6462 83.2846 48.2422 83.8594 47.2968C84.5299 46.3649 83.9552 45.1764 82.8057 45.1764C82.053 45.1764 81.6014 45.5951 81.4646 46.4459C81.4509 46.5134 81.3962 46.554 81.3414 46.554H80.4246C80.3425 46.554 80.2877 46.4864 80.2877 46.4054C80.5067 44.8793 81.3414 44.1094 82.7646 44.1094C83.4762 44.1094 84.0783 44.339 84.5573 44.7847C85.3783 45.514 85.5015 46.7295 84.9541 47.6749C84.4067 48.6473 83.1615 49.9574 82.3951 50.8758Z" fill="#86B3BF"/>
<path d="M86.2952 48.0666C86.2815 46.1623 87.1436 44.204 89.0595 44.123C89.7984 44.123 90.4279 44.4606 90.9479 45.1224C92.4805 46.9997 92.1111 51.9967 89.0595 52.1048C87.1163 52.0238 86.2952 50.0384 86.2952 48.0666ZM87.4584 48.0666C87.4584 49.2551 87.8279 50.9838 89.0595 51.0378C91.2079 50.9703 91.2079 45.2439 89.0595 45.1764C87.8552 45.2304 87.4584 46.9051 87.4584 48.0666Z" fill="#86B3BF"/>
<path d="M94.67 50.8758H97.448C97.5164 50.8758 97.5848 50.9298 97.5848 51.0108V51.8482C97.5848 51.9157 97.5301 51.9832 97.448 51.9832H92.6037C92.4942 51.9832 92.4258 51.8617 92.5079 51.7671C93.4248 50.6462 95.5595 48.2422 96.1343 47.2968C96.8048 46.3649 96.2301 45.1764 95.0806 45.1764C94.3279 45.1764 93.8763 45.5951 93.7395 46.4459C93.7258 46.5134 93.6711 46.554 93.6163 46.554H92.6995C92.6174 46.554 92.5626 46.4864 92.5626 46.4054C92.7816 44.8793 93.6163 44.1094 95.0395 44.1094C95.7511 44.1094 96.3532 44.339 96.8322 44.7847C97.6532 45.514 97.7764 46.7295 97.229 47.6749C96.6816 48.6473 95.4364 49.9574 94.67 50.8758Z" fill="#86B3BF"/>
<path d="M103.442 49.8223H104.14C104.208 49.8223 104.276 49.8764 104.276 49.9574V50.7542C104.276 50.8217 104.222 50.8893 104.14 50.8893H103.442V51.8482C103.442 51.9157 103.387 51.9832 103.305 51.9832H102.388C102.32 51.9832 102.251 51.9292 102.251 51.8482V50.8893H98.6659C98.5564 50.8893 98.5016 50.7677 98.5564 50.6867L103.195 44.0284C103.264 43.9204 103.428 43.9744 103.428 44.0959L103.442 49.8223ZM102.265 49.8223V47.2428L100.459 49.8223H102.265Z" fill="#86B3BF"/>
<path d="M30.7913 44.5686C41.4552 44.5686 50.1 36.0367 50.1 25.5122C50.1 14.9876 41.4552 6.45569 30.7913 6.45569C20.1274 6.45569 11.4827 14.9876 11.4827 25.5122C11.4827 36.0367 20.1274 44.5686 30.7913 44.5686Z" fill="#FFC271"/>
<path d="M34.705 17.0846C34.9239 17.3683 35.1018 17.6384 35.2113 17.9355C35.2387 18.03 35.1155 18.0705 35.0745 17.9895C34.6092 17.3547 33.8839 16.8821 32.8165 15.8421C32.365 15.3964 31.8586 15.0453 31.2702 14.7887C25.988 12.3577 23.4701 11.1286 21.7185 9.3324C19.0774 6.61776 18.3658 3.88962 17.6542 2.59308C17.5174 2.34998 17.1479 2.36348 17.0521 2.6336C16.3816 4.37582 16.6827 7.10396 20.6511 10.2103C20.7606 10.3048 20.6511 10.4534 20.528 10.3858C18.2153 9.15682 17.0521 8.22493 15.3553 6.76632C14.0005 5.60484 12.5226 4.44335 11.7152 3.79508C11.4963 3.61951 11.1815 3.8356 11.2636 4.10571C12.0026 6.33414 14.9995 8.79217 18.0921 10.3183C18.2153 10.3723 18.1332 10.5479 18.0237 10.5209C15.1226 9.69705 11.1678 8.60309 9.36151 8.10338C9.07414 8.03585 8.88255 8.387 9.11519 8.57608C11.1268 10.2238 14.8216 11.0476 17.75 11.4123C17.8869 11.4258 17.8869 11.6149 17.75 11.6284C16.71 11.6959 15.4647 11.6689 14.7942 11.6284C14.6026 11.6149 14.4658 11.8174 14.5616 11.993C15.0816 12.9249 16.7921 15.2614 21.349 16.5309C23.2238 17.0576 24.7428 17.0981 26.1522 17.5303C26.2891 17.5708 26.248 17.7734 26.1112 17.7599C24.3733 17.5843 22.4438 17.6384 20.2269 17.0846C19.9259 17.0171 19.6522 17.2467 19.6932 17.5438C20.2953 22.4329 26.5491 24.1076 29.7512 24.8639C30.0386 24.9314 30.3123 24.7964 30.4355 24.5262L31.4618 22.1898C36.2103 24.7288 39.0429 23.2432 39.0429 23.2432L39.2208 23.2702C39.4535 23.3107 39.7135 23.2972 39.9324 23.2162C40.124 23.1487 40.3977 23.0541 40.644 22.9461C40.9588 22.9731 41.1914 23.1757 41.3556 23.4053C41.4103 23.4728 41.5198 23.4728 41.5745 23.3918C41.8209 22.9731 41.7388 22.5814 41.6293 22.2303C41.6293 22.2303 41.7388 21.7711 41.7251 21.501C41.6977 21.2174 41.5746 21.1093 41.3282 20.5556C41.1093 20.0424 40.5619 20.0424 40.384 20.4475C40.3566 20.5151 40.2608 20.5556 40.1924 20.5421C40.1377 20.5286 40.0693 20.5151 40.0008 20.5016C39.6451 20.407 39.2619 20.5286 39.0019 20.8122C38.6324 21.2309 38.4408 21.9332 38.5914 22.4869C38.6324 22.649 38.4545 22.7975 38.304 22.703C37.7703 22.4194 37.4829 22.0682 37.3461 21.6766C37.1545 21.1768 37.8524 19.6237 38.9061 19.4886C39.385 19.4346 39.7545 19.6507 39.9598 19.8263C40.0556 19.8938 40.1787 19.9208 40.2745 19.8398C40.2882 19.8263 40.3156 19.8128 40.3293 19.7993C40.5482 19.6642 40.8082 19.6372 41.0545 19.6912C41.3693 19.7858 41.6156 20.0154 41.7661 20.353C41.8619 20.5556 41.9303 20.6906 41.9714 20.8122C42.0809 21.0283 42.163 21.1904 42.1903 21.4605C42.204 21.6495 42.1767 21.8791 42.163 22.0547C42.1493 22.1628 42.1493 22.2708 42.1767 22.3788C42.204 22.5004 42.3135 22.5814 42.4503 22.5814C44.2156 22.5409 47.4041 22.6355 48.7999 23.2702C48.7999 23.2702 50.5105 24.9179 52.0021 25.7147C52.2757 25.8633 52.5905 25.6607 52.5631 25.3501C52.4947 24.4722 52.0842 23.3918 51.3452 22.4599C51.2494 22.3518 51.3726 22.2168 51.4957 22.2843C53.1105 23.1487 55.7789 24.04 57.6263 23.932C57.7632 23.932 57.8316 23.7834 57.7769 23.6619C57.4758 23.1352 56.9558 22.5409 56.2168 22.0412C56.0937 21.9737 56.1484 21.7711 56.2853 21.7576C57.7769 21.6225 59.6927 21.0688 61.0474 19.6777C61.8959 18.8134 62.3885 17.8139 62.5801 16.828C62.6348 16.4769 62.1559 16.3283 62.0053 16.6525C61.3074 18.0705 59.7748 19.7317 56.8737 20.2585C52.5084 21.0283 48.2115 18.7999 41.383 18.0976C41.0956 18.0705 40.8219 18.0705 40.5345 18.0841L40.3977 18.0976C40.2472 18.1111 40.1924 18.2731 40.2882 18.3812C40.4387 18.5297 40.5893 18.6783 40.7398 18.7999C40.7945 18.8539 40.7261 18.9484 40.644 18.9079C39.4808 18.1786 38.1398 17.1657 36.8671 16.828C36.2787 16.6795 35.5945 16.6525 34.9103 16.666C34.6913 16.693 34.5681 16.9226 34.705 17.0846Z" fill="#31302C"/>
<path d="M24.7838 32.3866C21.3079 27.3219 18.2016 20.2855 14.0415 18.989C12.851 18.6243 11.6194 18.8269 10.4015 19.3266C13.1247 24.1886 16.8331 30.4417 24.7838 32.3866Z" fill="#FF7D43"/>
<path d="M53.0968 37.127C51.0442 34.561 49.32 31.4952 46.6378 30.9549C43.3399 30.2662 40.4114 33.359 37.2914 35.6009C40.8356 36.8974 44.4894 37.9914 50.7294 37.3701L53.0968 37.127Z" fill="#FF7D43"/>
<path d="M53.0968 37.1405C54.041 38.302 55.0537 39.3555 56.2579 40.0307C56.34 39.8687 56.4084 39.7201 56.4905 39.558C57.1063 38.275 56.0526 36.8299 54.6158 36.9785C53.781 37.073 53.0968 37.1405 53.0968 37.1405Z" fill="#86B3BF"/>
<path d="M30.3123 37.5052C32.8713 38.2885 35.1429 37.154 37.2914 35.6009C34.3629 34.5204 31.5029 33.3184 27.2881 32.8322C26.3986 32.7377 25.5502 32.5756 24.7701 32.3865C26.4807 34.8581 28.2733 36.8704 30.3123 37.5052Z" fill="#86B3BF"/>
<path d="M10.3878 19.3266C9.51203 17.7599 8.71833 15.7881 7.91095 14.0459C6.9941 12.0605 3.99722 12.5468 3.76459 14.7077L2.76562 23.7564C4.90039 23.0947 7.6099 20.4611 10.3878 19.3266Z" fill="#86B3BF"/>
<path d="M56.2716 40.0308C55.0674 39.369 54.0547 38.302 53.1105 37.127L50.7431 37.3701C44.4893 38.0049 40.8493 36.8974 37.305 35.6009C35.1429 37.1541 32.885 38.2885 30.326 37.5052C28.2734 36.8704 26.4944 34.8716 24.7838 32.3866C16.8332 30.4417 13.1247 24.2021 10.3879 19.3266C7.62362 20.4746 4.90042 23.1082 2.75198 23.77L2.65619 24.5938C2.47829 26.2415 2.40987 27.8892 2.50566 29.5369C5.02358 30.9009 7.55519 32.6432 10.3468 34.6015C21.9649 42.7724 38.304 47.729 49.7168 46.581C50.2915 46.527 51.0305 46.4459 51.8789 46.3649C53.6168 44.4606 55.1084 42.3402 56.2716 40.0308Z" fill="#2C7C89"/>
<path d="M51.8652 46.3784C51.0168 46.4594 50.2778 46.5405 49.7031 46.5945C38.2903 47.729 21.9648 42.7724 10.3468 34.615C7.54147 32.6431 5.02354 30.9144 2.50562 29.5504C2.61509 31.6842 2.97088 33.8046 3.61405 35.8575C4.40774 38.3695 5.54355 40.7195 6.96672 42.8804C11.2363 46.1893 16.0121 48.7419 21.349 48.5258C34.0618 48.0126 36.5113 51.5511 45.5567 51.5375C47.9104 50.106 50.0315 48.3772 51.8652 46.3784Z" fill="#31302C"/>
<path d="M6.95312 42.8399C12.03 50.5111 20.8154 55.5892 30.7913 55.5892C36.2103 55.5892 41.2736 54.0901 45.5841 51.497C36.5114 51.524 34.0893 47.972 21.3491 48.4853C16.0122 48.7149 11.2227 46.1488 6.95312 42.8399Z" fill="#FF7D43"/>
</g>
<defs>
<clipPath id="clip0_10_314">
<rect width="125" height="58" fill="white"/>
</clipPath>
</defs>
</svg>
